<svg width="18" height="18" viewBox="0 0 18 18" fill="none" xmlns="http://www.w3.org/2000/svg">
    <path d="M15.75 16.9739L15.7499 16.9741L15.7566 16.9802C15.8389 17.0556 15.9355 17.1137 16.0406 17.1513C16.1439 17.1881 16.2533 17.2043 16.3627 17.199C16.471 17.1988 16.5782 17.1777 16.6785 17.1366L16.6027 16.9515C16.6805 16.9197 16.7513 16.8728 16.8109 16.8135L16.9518 16.9554C16.9519 16.9554 16.9519 16.9553 16.9519 16.9553C17.0319 16.8758 17.0951 16.781 17.1377 16.6766L16.9525 16.6011L17.1377 16.6766C17.1803 16.5721 17.2015 16.4601 17.1999 16.3473C17.1984 16.2345 17.1741 16.1231 17.1286 16.0198C17.0835 15.9175 17.0185 15.8253 16.9373 15.7485L12.5968 11.4295C13.5892 10.141 14.0726 8.5282 13.9499 6.90101C13.8226 5.21342 13.0531 3.63927 11.8003 2.50409C10.5476 1.3689 8.90731 0.759528 7.21874 0.802088C5.53018 0.844648 3.92259 1.53588 2.72834 2.73274C1.53411 3.92958 0.844541 5.54049 0.802083 7.23236C0.759625 8.92423 1.36752 10.5678 2.5002 11.8233C3.63289 13.0788 5.20376 13.8501 6.88805 13.9777C8.51199 14.1007 10.1215 13.6162 11.4072 12.6217L15.75 16.9739ZM2.51219 7.40165C2.51219 6.42875 2.80006 5.47773 3.33935 4.66886C3.87864 3.86 4.6451 3.22963 5.54177 2.85741C6.43843 2.48519 7.42507 2.3878 8.37693 2.57755C9.3288 2.76731 10.2032 3.23568 10.8895 3.92353C11.5759 4.61138 12.0434 5.4878 12.2327 6.442C12.4221 7.3962 12.3249 8.38525 11.9534 9.28406C11.582 10.1829 10.9529 10.951 10.1459 11.4914C9.33887 12.0318 8.39012 12.3202 7.41962 12.3202C6.11823 12.3202 4.87005 11.8021 3.9497 10.8798C3.02932 9.95739 2.51219 8.70628 2.51219 7.40165Z" fill="#7C71D8" stroke="#7C71D8" stroke-width="0.4"/>
</svg>
